# xmcd
#
# Track frame offsets:
#	150
#	20993
#	41403
#	59984
#	80582
#	99736
#	113329
#	134970
#	157275
#	168835
#
# Disc length: 2548
#
# Revision: 1
# Processed by: cddbd v1.5.1PL0 Copyright (c) Steve Scherf et al.
# Submitted via: EasyCDDAExtractor 7.7.0.1
# Normalized: r0:DSETVAR1
#
DISCID=9209f20a
DTITLE=Various Artist - Carry On
DYEAR=2005
DGENRE=
TTITLE0=Katie Rose - Wash Over Me
TTITLE1=Katie Rose - Carry On
TTITLE2=Katie Rose - You Take Me Away
TTITLE3=Katie Rose - Stories
TTITLE4=Katie Rose - That's Why
TTITLE5=Katie Rose - Junction Song
TTITLE6=Katie Rose - Humble Shepherd
TTITLE7=Katie Rose - All That Is Hidden
TTITLE8=Katie Rose - Ave Maris Stella
TTITLE9=Katie rose - Psalm 91
EXTD=
EXTT0=
EXTT1=
EXTT2=
EXTT3=
EXTT4=
EXTT5=
EXTT6=
EXTT7=
EXTT8=
EXTT9=
PLAYORDER=
